<svg id="Layer_1" data-name="Layer 1" xmlns="http://www.w3.org/2000/svg" viewBox="0 0 399.15 93.68"><defs><style>.cls-1{fill:#69c0b1;}.cls-2{fill:#fff;}.cls-3{fill:#fed402;}</style></defs><title>ka_webbyra_logo_gron_vit</title><path class="cls-1" d="M189.74,383.3a46.84,46.84,0,1,1-46.84-46.84,46.84,46.84,0,0,1,46.84,46.84" transform="translate(-96.06 -336.46)"/><rect class="cls-2" x="14.51" y="23.01" width="8.13" height="45.03"/><polygon class="cls-2" points="23.46 44.95 37.04 23.01 46.91 23.01 32.24 44.96 23.46 44.95"/><polygon class="cls-2" points="32.37 45.78 43.87 60.59 40.33 68.08 23.46 45.78 32.37 45.78"/><polygon class="cls-2" points="62.02 23.01 41.23 68.1 50.11 68.1 66.24 29.77 63.14 23.01 62.02 23.01"/><polygon class="cls-2" points="53.78 61.56 80.14 61.58 83.13 68.1 51.01 68.09 53.78 61.56"/><polygon class="cls-2" points="66.71 30.79 79.68 60.74 71.65 60.74 62.89 39.7 66.71 30.79"/><polygon class="cls-2" points="136.57 46.22 142.42 24.76 155.74 24.76 142.05 67.92 132.19 67.92 125.9 46.9 119.61 67.92 109.74 67.92 96.06 24.76 109.37 24.76 115.23 46.22 121.4 26.18 130.52 26.18 136.57 46.22"/><path class="cls-2" d="M261.55,384.84h12.7c-.18-3.15-3.21-4.69-6.35-4.69s-6.17,1.54-6.35,4.69m-11.84,3.45c0-8.88,6.41-17,18.13-17,10.23,0,17.88,6.17,17.88,16.53a10.83,10.83,0,0,1-.31,2.89H261.55c0,1.79,2.84,4.88,8.32,4.88a14.08,14.08,0,0,0,8.76-3.15l5.24,7c-4,4.07-9.74,5.61-15.11,5.61-12,0-19-7.46-19-16.77" transform="translate(-96.06 -336.46)"/><path class="cls-2" d="M308.35,381c-3.7,0-6,3.15-6,7.22s2.28,7.21,6,7.21,6-3.14,6-7.21-2.28-7.22-6-7.22m-5.8,23.43h-12.7V359.8h12.7V376c1.73-3,5.06-4.75,9.25-4.75,8.63,0,15.23,7.09,15.23,16.9s-6.6,16.89-15.23,16.89c-4.19,0-7.52-1.79-9.25-4.69Z" transform="translate(-96.06 -336.46)"/><path class="cls-2" d="M349.91,381c-3.7,0-6,3.15-6,7.22s2.28,7.21,6,7.21,6-3.14,6-7.21-2.28-7.22-6-7.22m-5.8,23.43h-12.7V359.8h12.7V376c1.73-3,5.06-4.75,9.25-4.75,8.63,0,15.23,7.09,15.23,16.9s-6.6,16.89-15.23,16.89c-4.19,0-7.52-1.79-9.25-4.69Z" transform="translate(-96.06 -336.46)"/><polygon class="cls-2" points="297.93 35.49 311.19 35.49 290.6 81.73 278.14 81.73 285.66 64.78 272.16 35.49 286.03 35.49 291.64 52.07 297.93 35.49"/><path class="cls-2" d="M422.24,378.79c1-6.59,7.39-7.52,9.12-7.52a10.22,10.22,0,0,1,1.85.12v12.34a15.82,15.82,0,0,0-4.07-.44c-5.18,0-6.41,3.58-6.41,7v14.12H410V372h12.21Z" transform="translate(-96.06 -336.46)"/><path class="cls-2" d="M453.74,395.38c3.7,0,6-3.14,6-7.21s-2.28-7.22-6-7.22-6,3.15-6,7.22,2.28,7.21,6,7.21m5.8,5c-1.73,2.9-5.06,4.69-9.25,4.69-8.63,0-15.23-7.09-15.23-16.89s6.6-16.9,15.23-16.9c4.19,0,7.52,1.79,9.25,4.75V372h12.7v32.43h-12.7Z" transform="translate(-96.06 -336.46)"/><path class="cls-3" d="M495.21,395.5a9.15,9.15,0,1,1-9.15-9.15,9.15,9.15,0,0,1,9.15,9.15" transform="translate(-96.06 -336.46)"/></svg>