<svg xmlns="http://www.w3.org/2000/svg" width="511.302" height="120" viewBox="0 0 511.302 120"><defs><style>.a{fill:#542884;}.b{fill:#fff;}.c{fill:#1a1818;}.d{fill:#69c0b1;}</style></defs><g transform="translate(-96.064 -336.462)"><g transform="translate(96.064 336.462)"><path class="a" d="M216.064,396.462a60,60,0,1,1-60-60,60,60,0,0,1,60,60" transform="translate(-96.064 -336.462)"/><g transform="translate(18.583 29.475)"><path class="b" d="M0,0H10.417V57.683H0Z" transform="translate(0 0.001)"/><path class="b" d="M119.526,387.582l17.389-28.11h12.654l-18.8,28.114Z" transform="translate(-108.055 -359.472)"/><path class="b" d="M130.94,382.24l14.722,18.974-4.528,9.592L119.526,382.24Z" transform="translate(-108.054 -353.075)"/></g><g transform="translate(52.819 29.473)"><path class="b" d="M163.925,359.47,137.3,417.232h11.371l20.667-49.105-3.972-8.657Z" transform="translate(-137.297 -359.47)"/><path class="b" d="M150.623,398.019l33.773.023,3.822,8.357-41.149-.005Z" transform="translate(-134.552 -348.638)"/><path class="b" d="M163.843,367.25l16.621,38.365H170.178L158.955,378.66Z" transform="translate(-131.212 -357.284)"/></g></g><g transform="translate(219.112 366.361)"><path class="c" d="M244.014,388.707l7.5-27.486h17.06L251.043,416.51H238.406l-8.056-26.933-8.057,26.933H209.654l-17.533-55.289H209.18l7.505,27.486,7.9-25.67h11.689Z" transform="translate(-192.121 -359.405)"/><path class="c" d="M264.876,388.649h16.271c-.237-4.029-4.108-6-8.136-6-3.949,0-7.9,1.975-8.136,6M249.71,393.07c0-11.373,8.215-21.8,23.222-21.8,13.111,0,22.905,7.9,22.905,21.167a14.334,14.334,0,0,1-.395,3.712H264.876c0,2.29,3.633,6.241,10.663,6.241a18.013,18.013,0,0,0,11.216-4.029l6.712,9c-5.134,5.212-12.479,7.188-19.351,7.188-15.323,0-24.407-9.556-24.407-21.483" transform="translate(-175.94 -356.58)"/><path class="c" d="M313.545,386.895c-4.738,0-7.66,4.029-7.66,9.24s2.922,9.242,7.66,9.242,7.663-4.027,7.663-9.242-2.922-9.24-7.663-9.24m-7.423,30.013H289.851V359.8h16.271v20.772c2.211-3.79,6.477-6.082,11.848-6.082,11.057,0,19.509,9.083,19.509,21.641s-8.452,21.643-19.509,21.643c-5.371,0-9.637-2.29-11.848-6Z" transform="translate(-164.661 -359.803)"/><path class="c" d="M355.1,386.895c-4.738,0-7.66,4.029-7.66,9.24s2.922,9.242,7.66,9.242,7.662-4.027,7.662-9.242-2.921-9.24-7.662-9.24m-7.423,30.013H331.41V359.8h16.271v20.772c2.211-3.79,6.477-6.082,11.848-6.082,11.057,0,19.509,9.083,19.509,21.641s-8.452,21.643-19.509,21.643c-5.371,0-9.637-2.29-11.848-6Z" transform="translate(-152.983 -359.803)"/><path class="c" d="M401.237,371.949h16.982L391.84,431.188H375.884l9.636-21.72-17.3-37.519h17.772l7.186,21.248Z" transform="translate(-142.64 -356.39)"/><path class="c" d="M425.665,380.908c1.344-8.452,9.477-9.636,11.69-9.636a12.9,12.9,0,0,1,2.368.156v15.8a20.639,20.639,0,0,0-5.212-.553c-6.635,0-8.215,4.581-8.215,8.926v18.086h-16.27V372.139h15.638Z" transform="translate(-130.893 -356.58)"/><path class="c" d="M458.992,402.155c4.738,0,7.662-4.029,7.662-9.242s-2.923-9.241-7.662-9.241-7.663,4.029-7.663,9.241,2.923,9.242,7.663,9.242m7.425,6.4c-2.211,3.714-6.478,6-11.848,6-11.059,0-19.509-9.085-19.509-21.642s8.451-21.641,19.509-21.641c5.37,0,9.637,2.29,11.848,6.081v-5.214h16.27v41.546h-16.27Z" transform="translate(-123.86 -356.58)"/></g><path class="d" d="M500.353,398.071a11.72,11.72,0,1,1-11.72-11.72,11.719,11.719,0,0,1,11.72,11.72" transform="translate(107.013 14.018)"/></g></svg>