<svg xmlns="http://www.w3.org/2000/svg" viewBox="0 0 130.81 135.59"><defs><style>.cls-1{fill:none;stroke:#0b0e1e;stroke-linecap:round;stroke-linejoin:round;stroke-width:3px;}</style></defs><title>Optimera</title><g id="Lager_2" data-name="Lager 2"><g id="Lager_1-2" data-name="Lager 1"><rect class="cls-1" x="23.9" y="108.73" width="11.13" height="11.75"/><rect class="cls-1" x="47.86" y="98.54" width="11.13" height="21.95"/><rect class="cls-1" x="71.82" y="83.94" width="11.13" height="36.55"/><polyline class="cls-1" points="95.78 63.89 95.78 120.49 106.91 120.49 106.91 65.56"/><line class="cls-1" x1="1.5" y1="134.09" x2="129.31" y2="134.09"/><path class="cls-1" d="M88.07,50.66c-3.89,3.67-8.14,9.35-8,16.57h7.29"/><path class="cls-1" d="M114.6,50.65c3.9,3.68,8.15,9.36,8.05,16.58h-7.29"/><path class="cls-1" d="M113.65,55C122.07,22.23,101.34,1.5,101.34,1.5S80.61,22.23,89,55"/><line class="cls-1" x1="91.81" y1="16.88" x2="110.87" y2="16.88"/><circle class="cls-1" cx="101.34" cy="26.67" r="3.44"/><path class="cls-1" d="M104.78,39.26a3.44,3.44,0,1,0-3.44,3.44A3.44,3.44,0,0,0,104.78,39.26Z"/><circle class="cls-1" cx="101.34" cy="51.85" r="3.44"/><line class="cls-1" x1="38.71" y1="63.24" x2="40.3" y2="61.65"/><line class="cls-1" x1="47.3" y1="54.65" x2="48.89" y2="53.06"/><line class="cls-1" x1="48.89" y1="63.24" x2="47.3" y2="61.65"/><line class="cls-1" x1="40.3" y1="54.65" x2="38.71" y2="53.06"/><line class="cls-1" x1="58.65" y1="27.18" x2="58.21" y2="26.75"/><line class="cls-1" x1="64.9" y1="33.44" x2="64.47" y2="33"/><line class="cls-1" x1="58.65" y1="33" x2="58.21" y2="33.44"/><line class="cls-1" x1="64.9" y1="26.75" x2="64.47" y2="27.18"/><line class="cls-1" x1="20.41" y1="12.22" x2="19.97" y2="11.78"/><line class="cls-1" x1="26.66" y1="18.47" x2="26.22" y2="18.03"/><line class="cls-1" x1="20.41" y1="18.03" x2="19.97" y2="18.47"/><line class="cls-1" x1="26.66" y1="11.78" x2="26.22" y2="12.22"/><line class="cls-1" x1="10.43" y1="77.07" x2="9.99" y2="76.63"/><line class="cls-1" x1="16.68" y1="83.32" x2="16.24" y2="82.88"/><line class="cls-1" x1="10.43" y1="82.88" x2="9.99" y2="83.32"/><line class="cls-1" x1="16.68" y1="76.63" x2="16.24" y2="77.07"/></g></g></svg>