<svg xmlns="http://www.w3.org/2000/svg" viewBox="0 0 123.32 134.97"><defs><style>.cls-1{fill:none;stroke:#0b0e1e;stroke-linecap:round;stroke-linejoin:round;stroke-width:3px;}</style></defs><title>Planering_1</title><g id="Lager_2" data-name="Lager 2"><g id="Lager_1-2" data-name="Lager 1"><path class="cls-1" d="M67.88,45.06A16.38,16.38,0,0,1,79.36,54"/><path class="cls-1" d="M95.37,65.91A33.92,33.92,0,1,0,44.5,95.26a.15.15,0,0,1,.07.12V118A15.47,15.47,0,0,0,60,133.47h2.81A15.47,15.47,0,0,0,78.32,118V95.38a.15.15,0,0,1,.07-.12A33.87,33.87,0,0,0,95.37,65.91Z"/><line class="cls-1" x1="44.57" y1="107.32" x2="78.32" y2="107.32"/><line class="cls-1" x1="108.62" y1="64.96" x2="116.16" y2="64.96"/><line class="cls-1" x1="6.73" y1="64.96" x2="14.27" y2="64.96"/><line class="cls-1" x1="61.45" y1="17.79" x2="61.45" y2="10.24"/><line class="cls-1" x1="94.8" y1="31.61" x2="100.14" y2="26.27"/><line class="cls-1" x1="22.75" y1="103.65" x2="28.09" y2="98.32"/><line class="cls-1" x1="28.09" y1="31.61" x2="22.75" y2="26.27"/><line class="cls-1" x1="100.14" y1="103.65" x2="94.8" y2="98.32"/><line class="cls-1" x1="55.01" y1="116.18" x2="67.88" y2="116.18"/><line class="cls-1" x1="56.62" y1="124.22" x2="66.27" y2="124.22"/><path class="cls-1" d="M67.08,107.32c-2.42-26.16,5.44-36.2,6.89-39.8a.28.28,0,0,0-.41-.35,10.76,10.76,0,0,1-12-.37.29.29,0,0,0-.33,0,10.76,10.76,0,0,1-12,.37.28.28,0,0,0-.41.35c1.45,3.6,9.31,13.64,6.89,39.8"/><line class="cls-1" x1="37.33" y1="8.32" x2="36.91" y2="7.9"/><line class="cls-1" x1="43.38" y1="14.38" x2="42.96" y2="13.95"/><line class="cls-1" x1="37.33" y1="13.95" x2="36.91" y2="14.38"/><line class="cls-1" x1="43.38" y1="7.9" x2="42.96" y2="8.32"/><line class="cls-1" x1="81.14" y1="11.6" x2="82.72" y2="10.02"/><line class="cls-1" x1="89.66" y1="3.08" x2="91.24" y2="1.5"/><line class="cls-1" x1="91.24" y1="11.6" x2="89.66" y2="10.02"/><line class="cls-1" x1="82.72" y1="3.08" x2="81.14" y2="1.5"/><line class="cls-1" x1="1.92" y1="83.96" x2="1.5" y2="83.54"/><line class="cls-1" x1="7.97" y1="90.02" x2="7.55" y2="89.59"/><line class="cls-1" x1="1.92" y1="89.59" x2="1.5" y2="90.02"/><line class="cls-1" x1="7.97" y1="83.54" x2="7.55" y2="83.96"/><line class="cls-1" x1="111.72" y1="90.46" x2="113.3" y2="88.88"/><line class="cls-1" x1="120.24" y1="81.94" x2="121.82" y2="80.36"/><line class="cls-1" x1="121.82" y1="90.46" x2="120.24" y2="88.88"/><line class="cls-1" x1="113.3" y1="81.94" x2="111.72" y2="80.36"/><line class="cls-1" x1="16.77" y1="127.48" x2="18.35" y2="125.9"/><line class="cls-1" x1="25.29" y1="118.95" x2="26.87" y2="117.37"/><line class="cls-1" x1="26.87" y1="127.48" x2="25.29" y2="125.9"/><line class="cls-1" x1="18.35" y1="118.95" x2="16.77" y2="117.37"/><line class="cls-1" x1="3.89" y1="48.62" x2="5.22" y2="47.29"/><line class="cls-1" x1="11.06" y1="41.45" x2="12.38" y2="40.12"/><line class="cls-1" x1="12.38" y1="48.62" x2="11.06" y2="47.29"/><line class="cls-1" x1="5.22" y1="41.45" x2="3.89" y2="40.12"/><line class="cls-1" x1="111.36" y1="40.51" x2="110.94" y2="40.09"/><line class="cls-1" x1="117.41" y1="46.56" x2="116.99" y2="46.14"/><line class="cls-1" x1="111.36" y1="46.14" x2="110.94" y2="46.56"/><line class="cls-1" x1="117.41" y1="40.09" x2="116.99" y2="40.51"/><line class="cls-1" x1="90.44" y1="114.54" x2="90.02" y2="114.12"/><line class="cls-1" x1="96.49" y1="120.59" x2="96.07" y2="120.17"/><line class="cls-1" x1="90.44" y1="120.17" x2="90.02" y2="120.59"/><line class="cls-1" x1="96.49" y1="114.12" x2="96.07" y2="114.54"/></g></g></svg>