<svg xmlns="http://www.w3.org/2000/svg" viewBox="0 0 277.41 277.41"><defs><style>.cls-1{fill:none;stroke:#fff;stroke-linecap:round;stroke-miterlimit:10;stroke-width:5px;stroke-dasharray:0 9.01;}.cls-2{fill:#fff;}</style></defs><title>NOM19SVE_Vit-transp</title><g id="Bas"><circle class="cls-1" cx="138.7" cy="138.7" r="136.2"/></g><g id="Prägling"><g id="Statyett"><path class="cls-2" d="M119.75,148.89h11.06v69H119.75v2.79h37.19v-2.79H145.1v-31h12.74c12.84,0,29.15-4.57,29.15-20.19,0-17.63-17-20.53-31.16-20.53H119.75ZM145.1,184V148.89h13.07c12.51,0,13.07,9.6,13.07,17.63,0,9.15-2.23,17.52-13.07,17.52Z" transform="translate(-2.5 -3.8)"/><path class="cls-2" d="M96.86,93.25l9.58-5.52L141,147.44l-6.42,3.71,1.5,2.35,29-16.7-1.4-2.41-10.25,5.91-15.53-26.86,11-6.36C160,100.66,171.79,88.56,164,75c-8.83-15.27-25-9.3-37.27-2.21l-31.24,18ZM136.42,111l-17.6-30.43,11.32-6.53c10.83-6.25,16.12,1.78,20.14,8.74,4.58,7.92,6.84,16.28-2.55,21.7Z" transform="translate(-2.5 -3.8)"/></g><g id="Vinnare_20XX" data-name="Vinnare 20XX"><path class="cls-2" d="M50.55,88.26l-1.78,3.67L32.55,95.54l11.72,5.67-1.88,3.89L24,96.21l1.73-3.56L42.12,89,30.29,83.28l1.9-3.91Z" transform="translate(-2.5 -3.8)"/><path class="cls-2" d="M56.94,62.9c5,3.93,5.61,10.13,1.67,15.16s-10.08,6-15.12,2S37.89,70,41.83,64.94,51.91,59,56.94,62.9Zm-2.79,3.57a6.39,6.39,0,1,0-7.87,10.06,6.39,6.39,0,1,0,7.87-10.06Z" transform="translate(-2.5 -3.8)"/><path class="cls-2" d="M76.38,59.61l-2.79,2.27L62.65,56.73,69,65.64l-3.26,2.65-12-16.56,3.1-2.52,14.8,7.39-4.2-16,3.12-2.53L84.28,53.2,81,55.87l-7.43-8Z" transform="translate(-2.5 -3.8)"/><path class="cls-2" d="M91.87,49.52,88.1,51.63l-9.95-17.8,3.77-2.11Z" transform="translate(-2.5 -3.8)"/><path class="cls-2" d="M113.69,40.49l-3.82,1.41L95.69,33.24l4.49,12.22L96.13,47l-7-19.15,3.72-1.36,14.3,8.74-4.53-12.33,4.08-1.5Z" transform="translate(-2.5 -3.8)"/><path class="cls-2" d="M129,25.58l.61,3.85-9.36,1.5L121,35.2l10.63-1.71.62,3.88-14.9,2.39L114.1,19.62,129,17.23l.63,3.88L119,22.82l.69,4.26Z" transform="translate(-2.5 -3.8)"/><path class="cls-2" d="M142.6,31.06l-2.4,0-.14,6.24-4.32-.1.45-20.4c1.59,0,5.16-.07,7.86,0,5,.11,8.29,2.68,8.19,7.3a6.85,6.85,0,0,1-4,6.09l5,7.4L148,37.42,144,31.09Zm1.58-3.75a3.47,3.47,0,0,0,3.8-3.37c.05-2.25-1.52-3.27-3.95-3.32-1.11,0-2.37-.06-3.6-.05l-.15,6.66Z" transform="translate(-2.5 -3.8)"/><path class="cls-2" d="M158.47,38.5l-4.74-1.08,13.6-17.94,3.92.89,4.42,22.05L171,41.36l-.78-4-9.36-2.13Zm4.81-6.68,6.21,1.41L168,25.3Z" transform="translate(-2.5 -3.8)"/><path class="cls-2" d="M197.73,41.31c-2.64,5.78-8.48,7.74-13.77,5.32-2.68-1.22-5.7-2.76-7.13-3.54l8.47-18.56c1.51.59,4.37,1.69,6.8,2.8C197.94,30,200.32,35.63,197.73,41.31Zm-4.12-1.88a6.07,6.07,0,0,0-3.1-8.47c-.9-.41-1.87-.82-2.85-1.2l-5.33,11.68c1.07.55,2.23,1.12,3.3,1.6C188.49,44.35,192,43.06,193.61,39.43Z" transform="translate(-2.5 -3.8)"/><path class="cls-2" d="M200.88,55.56l1.77-2.23,9.72-1c2.11-.2,3.76-.31,4.75-1.56,1.32-1.67.71-3.37-1-4.73a16.8,16.8,0,0,0-4.79-2.41l1.52-3.47a20.36,20.36,0,0,1,6.31,3.24c4,3.16,3.9,7,1.83,9.63-1.88,2.38-5.11,2.88-8.9,3.18l-4,.08,6.56,5.19-2.4,3Z" transform="translate(-2.5 -3.8)"/><path class="cls-2" d="M234.33,73.64c-4.8,4.22-10.56,4.13-14.38-.22s-3.2-10.09,1.6-14.31,10.56-4.13,14.4.24S239.13,69.42,234.33,73.64Zm-2.91-3.31c3-2.63,3.61-6,1.53-8.34s-5.51-2.23-8.5.41-3.6,5.95-1.48,8.36S228.42,73,231.42,70.33Z" transform="translate(-2.5 -3.8)"/><path class="cls-2" d="M230.38,86.66l13.22-8.23L240,74.92l2.46-2.63,6.83,6.14L250,79.5,232.63,90.28Z" transform="translate(-2.5 -3.8)"/><path class="cls-2" d="M253.35,103.7a8,8,0,0,1-4.7.3l-10.36-2.11-1.9-4.47,6.9,1.43c-1.93-4.53-.7-8.77,3.49-10.56s8.45.15,10.38,4.68S257.6,101.88,253.35,103.7Zm-7-6.13a3.93,3.93,0,0,0,5.38,2.37,4.28,4.28,0,0,0-3.36-7.86A3.93,3.93,0,0,0,246.37,97.57Z" transform="translate(-2.5 -3.8)"/></g><g id="Stjärnor"><polygon class="cls-2" points="251.34 118.73 244 121.11 251.34 123.5 251.32 131.21 255.86 124.96 263.21 127.34 258.66 121.11 263.2 114.87 255.86 117.26 251.34 111.03 251.34 118.73"/><polygon class="cls-2" points="21.44 117.39 14.12 114.92 18.59 121.21 13.98 127.39 21.35 125.09 25.82 131.38 25.89 123.67 33.26 121.37 25.94 118.9 26.03 111.2 21.44 117.39"/></g><g id="Publishingpriset"><path class="cls-2" d="M31.48,166.53c-4.73.62-8.32-2.68-9-8.08L22,155.06l-6.34.83-.6-4.57,21.57-2.83c.4,2.08.94,5,1.33,7.93C38.67,161.81,36.24,165.9,31.48,166.53Zm-4.89-8.2c.32,2.41,2,4,4.27,3.73s3.28-2.27,3-4.68c-.17-1.3-.34-2.6-.57-3.8l-7.17.94Z" transform="translate(-2.5 -3.8)"/><path class="cls-2" d="M34.77,191.32c-5.9,2.12-10.8-.34-12.83-6s.18-10.65,6.09-12.77l11.47-4.12,1.56,4.34-11.47,4.12c-3.41,1.22-4.68,3.92-3.59,7s3.8,4.31,7.2,3.09l11.48-4.12,1.56,4.37Z" transform="translate(-2.5 -3.8)"/><path class="cls-2" d="M44.75,214.88c-3.41,2.17-7,.72-9.74-3.63C33.55,209,31.19,205,30.1,203l18.37-11.68c1.23,1.83,3.46,5.16,5,7.62,2.68,4.21,2.44,7.7-.7,9.69a5.14,5.14,0,0,1-6.42-.62C47.47,210.88,46.85,213.55,44.75,214.88Zm-2-4.09c1.35-.86,1.33-2.51.16-4.34l-2.76-4.35-4.3,2.73c.81,1.38,1.65,2.82,2.26,3.79C39.58,211,41.12,211.81,42.71,210.79Zm5-13.52-4.43,2.82,2.42,3.81c1.11,1.75,2.77,2.33,4.17,1.44s1.45-2.44,0-4.73C49.2,199.58,48.42,198.41,47.7,197.27Z" transform="translate(-2.5 -3.8)"/><path class="cls-2" d="M45.15,224.66l15.7-15L64,212.93l-12.73,12.2,7.66,8L56,236Z" transform="translate(-2.5 -3.8)"/><path class="cls-2" d="M65.43,243.46l-3.63-2.84,13.38-17.15,3.64,2.84Z" transform="translate(-2.5 -3.8)"/><path class="cls-2" d="M94.58,242.13a28.72,28.72,0,0,0-5.88-4.9c-1.87-1-3.41-1-4.18.36s.73,2.78,3.31,5c3.64,3.07,5.33,5.65,3.39,9.15-2.29,4.14-6.58,4.29-11.17,1.75a25.78,25.78,0,0,1-7.22-6.11l3-3.2a23.68,23.68,0,0,0,6.35,5.63c2.19,1.21,3.9,1.43,4.69,0,1-1.85-1.38-3.54-3.71-5.53-3.72-3.19-4.87-5.61-3.06-8.89,2-3.56,6.17-4.2,10.67-1.7a26.7,26.7,0,0,1,6.77,5.42Z" transform="translate(-2.5 -3.8)"/><path class="cls-2" d="M110.47,265l2.4-8.16L103.11,254l-2.4,8.17-4.42-1.3L102.42,240l4.42,1.3L104.3,250l9.76,2.87,2.54-8.66,4.42,1.3-6.13,20.87Z" transform="translate(-2.5 -3.8)"/><path class="cls-2" d="M128.92,268.13l-4.58-.52L126.82,246l4.58.52Z" transform="translate(-2.5 -3.8)"/><path class="cls-2" d="M158.32,267.94l-4.34.25-11.77-13.26L143,268.8l-4.61.26-1.21-21.73,4.22-.24,11.87,13.38-.79-14,4.64-.26Z" transform="translate(-2.5 -3.8)"/><path class="cls-2" d="M187.31,258.49a27.11,27.11,0,0,1-9,5.18c-6.71,2-12.47-1-14.45-7.62s1.41-12.18,8.43-14.3a32.62,32.62,0,0,1,7.57-1.27l.39,4.32a48.85,48.85,0,0,0-6.32,1.07c-4.45,1.34-6.62,4.87-5.44,8.79s4.65,5.92,8.57,4.74a26.06,26.06,0,0,0,5.34-2.48l-1.11-3.67-7.08,2.13-1.19-4,11.16-3.35Z" transform="translate(-2.5 -3.8)"/><path class="cls-2" d="M204.3,235.4c2.35,4.15.63,8.72-4.1,11.4l-3,1.68,3.15,5.57-4,2.27-10.7-18.94c1.77-1.16,4.26-2.74,6.85-4.21C197.23,230.5,201.94,231.22,204.3,235.4Zm-5.77,7.6c2.12-1.2,3-3.35,1.86-5.36s-3.33-2.19-5.45-1c-1.14.65-2.29,1.3-3.31,2l3.55,6.3Z" transform="translate(-2.5 -3.8)"/><path class="cls-2" d="M218.74,233.5l-1.93,1.68,4.37,5-3.48,3-14.28-16.42c1.23-1.16,4-3.76,6.19-5.65,4-3.51,8.46-3.84,11.69-.12a7.28,7.28,0,0,1,1.24,7.66L231.8,231l-4.2,3.65-7.75-2.08Zm-1.44-4.09a3.72,3.72,0,0,0,.58-5.39c-1.58-1.81-3.55-1.49-5.51.21-.89.78-1.91,1.66-2.87,2.55l4.66,5.36Z" transform="translate(-2.5 -3.8)"/><path class="cls-2" d="M239.47,221.73l-3,3.53-16.68-14,3-3.53Z" transform="translate(-2.5 -3.8)"/><path class="cls-2" d="M239.16,192.52a28.76,28.76,0,0,0-5.1,5.71c-1.1,1.84-1.16,3.37.21,4.2s2.81-.64,5.09-3.15c3.2-3.53,5.84-5.12,9.27-3.06,4.06,2.43,4.06,6.72,1.36,11.22a25.42,25.42,0,0,1-6.36,7l-3.09-3.12a23.48,23.48,0,0,0,5.85-6.16c1.29-2.14,1.56-3.84.16-4.68-1.81-1.08-3.58,1.25-5.65,3.52-3.32,3.61-5.78,4.67-9,2.74-3.48-2.09-4-6.3-1.33-10.72a26.93,26.93,0,0,1,5.65-6.57Z" transform="translate(-2.5 -3.8)"/><path class="cls-2" d="M250.43,173.32l3.93,1.38L251,184.24l4.35,1.53,3.8-10.84,4,1.38-5.33,15.19-20.53-7.2,5.32-15.19,4,1.39-3.8,10.84,4.35,1.53Z" transform="translate(-2.5 -3.8)"/><path class="cls-2" d="M266.58,157.18l-.61,4.56-17.38-2.33-1,7.55-4.18-.57L246,146.73l4.19.57-1,7.54Z" transform="translate(-2.5 -3.8)"/></g></g></svg>