<svg xmlns="http://www.w3.org/2000/svg" viewBox="0 0 129.65 127.36"><defs><style>.cls-1{fill:none;stroke:#0b0e1e;stroke-linecap:round;stroke-linejoin:round;stroke-width:3px;}</style></defs><title>Skapa</title><g id="Lager_2" data-name="Lager 2"><g id="Lager_1-2" data-name="Lager 1"><path class="cls-1" d="M2.38,117.75H127.27a.88.88,0,0,1,.88.88v2.67a4.57,4.57,0,0,1-4.57,4.56H6.07A4.57,4.57,0,0,1,1.5,121.3v-2.67A.88.88,0,0,1,2.38,117.75Z"/><line class="cls-1" x1="91.05" y1="54.51" x2="115.99" y2="54.51"/><line class="cls-1" x1="13.65" y1="54.51" x2="38.6" y2="54.51"/><path class="cls-1" d="M86.46,42.21h20.26A9.28,9.28,0,0,1,116,51.49V105l11.52,12.84"/><path class="cls-1" d="M2.14,117.8,13.65,105V51.49a9.29,9.29,0,0,1,9.28-9.28h20"/><line class="cls-1" x1="13.65" y1="105.01" x2="115.99" y2="105.01"/><line class="cls-1" x1="62.9" y1="111.79" x2="65.46" y2="111.79"/><line class="cls-1" x1="71.86" y1="111.79" x2="74.42" y2="111.79"/><line class="cls-1" x1="45" y1="111.79" x2="47.55" y2="111.79"/><line class="cls-1" x1="53.95" y1="111.79" x2="56.51" y2="111.79"/><line class="cls-1" x1="36.04" y1="111.79" x2="38.6" y2="111.79"/><line class="cls-1" x1="18.13" y1="111.79" x2="20.69" y2="111.79"/><line class="cls-1" x1="27.09" y1="111.79" x2="29.64" y2="111.79"/><line class="cls-1" x1="100" y1="111.79" x2="102.56" y2="111.79"/><line class="cls-1" x1="108.96" y1="111.79" x2="111.52" y2="111.79"/><line class="cls-1" x1="91.05" y1="111.79" x2="93.61" y2="111.79"/><path class="cls-1" d="M52.15,48.45c-3.72,3.51-7.78,8.94-7.68,15.84h7"/><path class="cls-1" d="M77.49,48.45c3.73,3.51,7.79,8.94,7.69,15.84h-7"/><path class="cls-1" d="M76.58,52.56C84.62,21.3,64.82,1.5,64.82,1.5S45,21.3,53.06,52.56"/><line class="cls-1" x1="55.72" y1="16.2" x2="73.92" y2="16.2"/><circle class="cls-1" cx="64.82" cy="25.55" r="3.29"/><circle class="cls-1" cx="64.82" cy="37.57" r="3.29"/><path class="cls-1" d="M68.11,49.6a3.29,3.29,0,1,0-3.29,3.28A3.29,3.29,0,0,0,68.11,49.6Z"/><path class="cls-1" d="M58.85,62.75c-4.09,11.39,6,18.61,6,18.61s10.06-7.22,6-18.61"/><line class="cls-1" x1="70" y1="92.62" x2="70" y2="88.32"/><line class="cls-1" x1="80.34" y1="96.11" x2="80.34" y2="74.52"/><line class="cls-1" x1="59.65" y1="97.95" x2="59.65" y2="88.16"/><line class="cls-1" x1="49.3" y1="87.83" x2="49.3" y2="74.63"/><line class="cls-1" x1="12.49" y1="30.41" x2="14.01" y2="28.89"/><line class="cls-1" x1="20.67" y1="22.23" x2="22.19" y2="20.71"/><line class="cls-1" x1="22.19" y1="30.41" x2="20.67" y2="28.89"/><line class="cls-1" x1="14.01" y1="22.23" x2="12.49" y2="20.71"/><line class="cls-1" x1="34.64" y1="4" x2="34.23" y2="3.58"/><line class="cls-1" x1="40.6" y1="9.95" x2="40.18" y2="9.53"/><line class="cls-1" x1="34.64" y1="9.53" x2="34.23" y2="9.95"/><line class="cls-1" x1="40.6" y1="3.58" x2="40.18" y2="4"/><line class="cls-1" x1="90.06" y1="16.16" x2="91.58" y2="14.64"/><line class="cls-1" x1="98.24" y1="7.98" x2="99.76" y2="6.47"/><line class="cls-1" x1="99.76" y1="16.16" x2="98.24" y2="14.64"/><line class="cls-1" x1="91.58" y1="7.98" x2="90.06" y2="6.47"/><line class="cls-1" x1="109.05" y1="26.16" x2="108.63" y2="25.74"/><line class="cls-1" x1="115" y1="32.11" x2="114.58" y2="31.7"/><line class="cls-1" x1="109.05" y1="31.7" x2="108.63" y2="32.11"/><line class="cls-1" x1="115" y1="25.74" x2="114.58" y2="26.16"/></g></g></svg>