<svg id="Layer_1" data-name="Layer 1" xmlns="http://www.w3.org/2000/svg" viewBox="0 0 77.77 67.46"><defs><style>.cls-1{fill:#fff;}.cls-2{fill:#231f20;}</style></defs><title>WPE-BDG-PartnerProgram-Outline-Member-W</title><path class="cls-1" d="M241.24,115.88H163.47V57.6l9.18-9.18h59.42l9.17,9.18Zm-76.58-1.19h75.39V58.09l-8.47-8.48H173.14l-8.48,8.48Z" transform="translate(-163.47 -48.42)"/><path class="cls-1" d="M183.09,61.65a.12.12,0,0,1-.12-.09l-1-3.48h0l-1,3.48a.12.12,0,0,1-.12.09h-1.14a.11.11,0,0,1-.12-.09l-1.69-6c0-.06,0-.09.07-.09h1.5a.1.1,0,0,1,.12.09l.8,3.62h0l1-3.62a.11.11,0,0,1,.12-.09h.94a.1.1,0,0,1,.12.09l1,3.62h0l.77-3.62a.1.1,0,0,1,.11-.09H186c.06,0,.09,0,.07.09l-1.68,6a.12.12,0,0,1-.13.09Z" transform="translate(-163.47 -48.42)"/><path class="cls-1" d="M187.27,61.65a.09.09,0,0,1-.09-.09v-6a.08.08,0,0,1,.09-.09h2.49a2,2,0,0,1,2.31,2.06,2,2,0,0,1-2.31,2.08h-.91a.05.05,0,0,0-.06.06v1.93a.08.08,0,0,1-.09.09Zm3.19-4.16c0-.43-.28-.7-.79-.7h-.82s-.06,0-.06.05v1.31a.05.05,0,0,0,.06.06h.82A.7.7,0,0,0,190.46,57.49Z" transform="translate(-163.47 -48.42)"/><path class="cls-1" d="M194.22,60.13a4.84,4.84,0,0,1-.17-1.55,5,5,0,0,1,.17-1.56,2.19,2.19,0,0,1,4.15,0,4.48,4.48,0,0,1,.17,1.46c0,.07,0,.12-.14.12h-3.91c-.05,0-.07,0-.07.09a4.6,4.6,0,0,0,.14,1.32,1.75,1.75,0,0,0,1.81,1.28,2.08,2.08,0,0,0,1.76-.85.11.11,0,0,1,.17,0l.08.06a.11.11,0,0,1,0,.17,2.39,2.39,0,0,1-2,1A2.06,2.06,0,0,1,194.22,60.13Zm3.87-1.87a.07.07,0,0,0,.08-.08,3.26,3.26,0,0,0-.14-1,1.83,1.83,0,0,0-3.48,0,3.62,3.62,0,0,0-.13,1s0,.08.07.08Z" transform="translate(-163.47 -48.42)"/><path class="cls-1" d="M204.08,61.52a.12.12,0,0,1-.12-.13v-3.5c0-1.38-.57-2-1.72-2a1.72,1.72,0,0,0-1.79,1.81v3.69a.12.12,0,0,1-.12.13h-.13a.12.12,0,0,1-.12-.13v-5.6a.12.12,0,0,1,.12-.12h.13a.12.12,0,0,1,.12.12v.83h0a1.87,1.87,0,0,1,1.8-1.08c1.33,0,2.07.76,2.07,2.26v3.59a.12.12,0,0,1-.13.13Z" transform="translate(-163.47 -48.42)"/><path class="cls-1" d="M206.09,63a.12.12,0,0,1,0-.17l.1-.06a.13.13,0,0,1,.18,0,1.83,1.83,0,0,0,1.55.69c1.11,0,1.83-.54,1.83-2v-1h0a1.79,1.79,0,0,1-1.83,1.1,1.91,1.91,0,0,1-1.94-1.4,6.91,6.91,0,0,1,0-3.3,1.91,1.91,0,0,1,1.94-1.4,1.79,1.79,0,0,1,1.83,1.1h0v-.85a.12.12,0,0,1,.12-.12H210a.12.12,0,0,1,.13.12v5.74a2,2,0,0,1-2.2,2.33A2.2,2.2,0,0,1,206.09,63Zm3.52-2.9a7.4,7.4,0,0,0,0-3.06A1.6,1.6,0,0,0,208,55.89a1.58,1.58,0,0,0-1.62,1.16,6.34,6.34,0,0,0,0,3.08A1.58,1.58,0,0,0,208,61.29,1.6,1.6,0,0,0,209.61,60.12Z" transform="translate(-163.47 -48.42)"/><path class="cls-1" d="M212.15,53.86a.12.12,0,0,1-.12-.12v-.49a.12.12,0,0,1,.12-.13h.3a.12.12,0,0,1,.12.13v.49a.12.12,0,0,1-.12.12Zm.09,7.66a.12.12,0,0,1-.13-.13v-5.6a.12.12,0,0,1,.13-.12h.12a.12.12,0,0,1,.12.12v5.6a.12.12,0,0,1-.12.13Z" transform="translate(-163.47 -48.42)"/><path class="cls-1" d="M218.46,61.52a.12.12,0,0,1-.13-.13v-3.5c0-1.38-.57-2-1.71-2a1.72,1.72,0,0,0-1.79,1.81v3.69a.12.12,0,0,1-.13.13h-.12a.12.12,0,0,1-.12-.13v-5.6a.12.12,0,0,1,.12-.12h.12a.12.12,0,0,1,.13.12v.83h0a1.87,1.87,0,0,1,1.8-1.08c1.32,0,2.06.76,2.06,2.26v3.59a.12.12,0,0,1-.12.13Z" transform="translate(-163.47 -48.42)"/><path class="cls-1" d="M220.34,60.13a4.84,4.84,0,0,1-.17-1.55,5,5,0,0,1,.17-1.56,2.06,2.06,0,0,1,2.08-1.48A2,2,0,0,1,224.49,57a4.48,4.48,0,0,1,.17,1.46.12.12,0,0,1-.13.12h-3.92a.08.08,0,0,0-.07.09,4.2,4.2,0,0,0,.15,1.32,1.74,1.74,0,0,0,1.8,1.28,2.1,2.1,0,0,0,1.77-.85.11.11,0,0,1,.17,0l.07.06a.11.11,0,0,1,0,.17,2.37,2.37,0,0,1-2,1A2.06,2.06,0,0,1,220.34,60.13Zm3.88-1.87c.05,0,.07,0,.07-.08a3.62,3.62,0,0,0-.13-1,1.83,1.83,0,0,0-3.48,0,3.26,3.26,0,0,0-.14,1,.07.07,0,0,0,.07.08Z" transform="translate(-163.47 -48.42)"/><path class="cls-1" d="M225.37,56.26a.72.72,0,1,1,1.43,0,.72.72,0,0,1-1.43,0Zm1.32,0a.61.61,0,1,0-.6.61A.59.59,0,0,0,226.69,56.26Zm-.84.39a0,0,0,0,1,0,0v-.74a0,0,0,0,1,0,0h.3a.22.22,0,0,1,.25.24.2.2,0,0,1-.16.21l.16.32s0,0,0,0h-.07s0,0,0,0l-.16-.31h-.18v.29a0,0,0,0,1,0,0Zm.43-.56c0-.08,0-.13-.14-.13h-.2v.23h.2C226.24,56.21,226.28,56.16,226.28,56.09Z" transform="translate(-163.47 -48.42)"/><rect class="cls-1" x="8.22" y="47.01" width="61.33" height="11.62"/><path class="cls-2" d="M183,98.56a.07.07,0,0,1,.08-.08h.32a.11.11,0,0,1,.12.08l1.84,4h0l1.8-4a.12.12,0,0,1,.12-.08h.32a.07.07,0,0,1,.08.08v5.49a.07.07,0,0,1-.08.08h-.31a.07.07,0,0,1-.08-.08V99.62h0l-1.63,3.59a.14.14,0,0,1-.15.09h-.17a.13.13,0,0,1-.14-.09l-1.63-3.59h0v4.43a.07.07,0,0,1-.08.08h-.31a.07.07,0,0,1-.08-.08Z" transform="translate(-163.47 -48.42)"/><path class="cls-2" d="M191,98.56a.08.08,0,0,1,.09-.08h3.23a.07.07,0,0,1,.08.08v.28a.08.08,0,0,1-.08.09h-2.79s-.05,0-.05,0v2s0,.05.05.05h2.4a.07.07,0,0,1,.08.08v.28a.08.08,0,0,1-.08.09h-2.4s-.05,0-.05.05v2.09s0,.05.05.05h2.79a.08.08,0,0,1,.08.09v.28a.07.07,0,0,1-.08.08h-3.23a.08.08,0,0,1-.09-.08Z" transform="translate(-163.47 -48.42)"/><path class="cls-2" d="M197.25,98.56a.08.08,0,0,1,.09-.08h.31a.13.13,0,0,1,.13.08l1.83,4h0l1.79-4a.12.12,0,0,1,.12-.08h.32a.08.08,0,0,1,.09.08v5.49a.08.08,0,0,1-.09.08h-.3a.08.08,0,0,1-.09-.08V99.62h0l-1.63,3.59a.13.13,0,0,1-.15.09h-.17a.13.13,0,0,1-.14-.09l-1.63-3.59h0v4.43a.08.08,0,0,1-.09.08h-.3a.08.08,0,0,1-.09-.08Z" transform="translate(-163.47 -48.42)"/><path class="cls-2" d="M205.2,98.56a.07.07,0,0,1,.08-.08h1.9c1.07,0,1.64.57,1.64,1.46a1.22,1.22,0,0,1-.87,1.27v0a1.31,1.31,0,0,1,1,1.35c0,1-.62,1.55-1.73,1.55h-1.9a.07.07,0,0,1-.08-.08Zm2,2.47a1,1,0,0,0,1.18-1c0-.65-.42-1-1.18-1h-1.45s-.05,0-.05,0v2a0,0,0,0,0,.05,0Zm-1.45,2.65h1.49c.81,0,1.23-.43,1.23-1.1s-.42-1.1-1.23-1.1h-1.49a0,0,0,0,0-.05,0v2.1S205.69,103.68,205.72,103.68Z" transform="translate(-163.47 -48.42)"/><path class="cls-2" d="M211.86,98.56a.07.07,0,0,1,.08-.08h3.24a.07.07,0,0,1,.08.08v.28a.08.08,0,0,1-.08.09h-2.8s0,0,0,0v2a0,0,0,0,0,0,.05h2.41a.07.07,0,0,1,.08.08v.28a.08.08,0,0,1-.08.09h-2.41s0,0,0,.05v2.09s0,.05,0,.05h2.8a.08.08,0,0,1,.08.09v.28a.07.07,0,0,1-.08.08h-3.24a.07.07,0,0,1-.08-.08Z" transform="translate(-163.47 -48.42)"/><path class="cls-2" d="M221.5,104.13a.09.09,0,0,1-.1-.07l-1.19-2.46h-1.54a0,0,0,0,0,0,.05v2.4a.07.07,0,0,1-.08.08h-.31a.07.07,0,0,1-.08-.08V98.56a.07.07,0,0,1,.08-.08h1.9a1.53,1.53,0,0,1,1.72,1.56,1.45,1.45,0,0,1-1.16,1.5l1.23,2.5s0,.09,0,.09Zm-.13-4.09c0-.71-.44-1.11-1.25-1.11h-1.45s0,0,0,0v2.12s0,.05,0,.05h1.45C220.93,101.15,221.37,100.76,221.37,100Z" transform="translate(-163.47 -48.42)"/><path class="cls-1" d="M171.53,91.08a.1.1,0,0,1-.11-.1V83.92a.1.1,0,0,1,.11-.11h2.72a2.26,2.26,0,1,1,0,4.52h-1.5a.06.06,0,0,0-.07.07V91a.1.1,0,0,1-.11.1Zm3.86-5a1.1,1.1,0,0,0-1.21-1.13h-1.43a.06.06,0,0,0-.07.07v2.12s0,.06.07.06h1.43A1.09,1.09,0,0,0,175.39,86.07Z" transform="translate(-163.47 -48.42)"/><path class="cls-1" d="M182.15,83.92a.13.13,0,0,1,.14-.11h1a.13.13,0,0,1,.14.11L185.87,91c0,.06,0,.1-.08.1h-1a.12.12,0,0,1-.14-.1l-.48-1.42h-2.74L180.91,91a.13.13,0,0,1-.14.1h-1c-.08,0-.1,0-.08-.1Zm1.59,4.52-1-2.82h0l-1,2.82Z" transform="translate(-163.47 -48.42)"/><path class="cls-1" d="M194.16,91.08A.15.15,0,0,1,194,91l-1.39-2.84h-1.26s-.06,0-.06.07V91a.1.1,0,0,1-.11.1h-1A.1.1,0,0,1,190,91V83.92a.1.1,0,0,1,.11-.11H193A2.16,2.16,0,0,1,195.27,86a2.08,2.08,0,0,1-1.38,2l1.53,3c0,.08,0,.14-.08.14ZM194,86a1,1,0,0,0-1.11-1h-1.56s-.06,0-.06.07v1.93s0,.07.06.07h1.56A1,1,0,0,0,194,86Z" transform="translate(-163.47 -48.42)"/><path class="cls-1" d="M201.4,91.08a.1.1,0,0,1-.11-.1V85s0-.07-.06-.07h-1.91a.09.09,0,0,1-.1-.1v-.92a.1.1,0,0,1,.1-.11h5.2a.1.1,0,0,1,.11.11v.92a.1.1,0,0,1-.11.1h-1.9a.06.06,0,0,0-.07.07v6a.09.09,0,0,1-.1.1Z" transform="translate(-163.47 -48.42)"/><path class="cls-1" d="M208.83,83.92a.1.1,0,0,1,.11-.11h1a.17.17,0,0,1,.18.11l3,5h0v-5a.1.1,0,0,1,.11-.11h.93a.1.1,0,0,1,.1.11V91a.09.09,0,0,1-.1.1h-1A.19.19,0,0,1,213,91l-3-5H210v5a.09.09,0,0,1-.1.1h-.93a.1.1,0,0,1-.11-.1Z" transform="translate(-163.47 -48.42)"/><path class="cls-1" d="M219,83.92a.1.1,0,0,1,.11-.11h4.56a.1.1,0,0,1,.1.11v.92a.09.09,0,0,1-.1.1h-3.34a.07.07,0,0,0-.07.07v1.77a.06.06,0,0,0,.07.07h2.81a.1.1,0,0,1,.11.11v.92a.1.1,0,0,1-.11.1h-2.81a.06.06,0,0,0-.07.07v1.84s0,.06.07.06h3.34a.1.1,0,0,1,.1.11V91a.09.09,0,0,1-.1.1h-4.56A.1.1,0,0,1,219,91Z" transform="translate(-163.47 -48.42)"/><path class="cls-1" d="M232.41,91.08a.15.15,0,0,1-.16-.1l-1.39-2.84h-1.25a.06.06,0,0,0-.07.07V91a.09.09,0,0,1-.1.1h-1.05a.1.1,0,0,1-.11-.1V83.92a.1.1,0,0,1,.11-.11h2.81A2.16,2.16,0,0,1,233.52,86a2.06,2.06,0,0,1-1.38,2l1.53,3c.05.08,0,.14-.07.14Zm-.14-5.1a1,1,0,0,0-1.11-1h-1.55a.07.07,0,0,0-.07.07v1.93a.06.06,0,0,0,.07.07h1.55A1,1,0,0,0,232.27,86Z" transform="translate(-163.47 -48.42)"/><path class="cls-1" d="M175.24,68.48a.22.22,0,0,1,.23-.17h1.59a.24.24,0,0,1,.23.17l4,11.46c0,.1,0,.17-.12.17h-1.7a.21.21,0,0,1-.23-.17l-.78-2.29H174l-.78,2.29a.22.22,0,0,1-.23.17h-1.68c-.12,0-.16-.07-.12-.17Zm2.58,7.34-1.56-4.58h0l-1.58,4.58Z" transform="translate(-163.47 -48.42)"/><path class="cls-1" d="M182.56,74.21a9.68,9.68,0,0,1,.31-3.25,4.07,4.07,0,0,1,4.22-2.84,4.16,4.16,0,0,1,4.11,2.5.19.19,0,0,1-.07.24l-1.46.64a.18.18,0,0,1-.22-.08A2.52,2.52,0,0,0,187.07,70a2.14,2.14,0,0,0-2.22,1.54,9.32,9.32,0,0,0-.21,2.71,9.37,9.37,0,0,0,.21,2.71,2.14,2.14,0,0,0,2.22,1.54A2.23,2.23,0,0,0,189.31,77a5,5,0,0,0,.19-1.53.1.1,0,0,0-.11-.11h-1.94a.16.16,0,0,1-.17-.17V73.79a.16.16,0,0,1,.17-.17h3.91a.16.16,0,0,1,.17.17v1a9.71,9.71,0,0,1-.28,2.58,4.49,4.49,0,0,1-8.38,0A9.57,9.57,0,0,1,182.56,74.21Z" transform="translate(-163.47 -48.42)"/><path class="cls-1" d="M194.21,68.48a.17.17,0,0,1,.18-.17h7.39a.16.16,0,0,1,.17.17V70a.16.16,0,0,1-.17.17h-5.41c-.07,0-.11,0-.11.1v2.88a.1.1,0,0,0,.11.11h4.56a.16.16,0,0,1,.17.17V74.9a.17.17,0,0,1-.17.18h-4.56c-.07,0-.11,0-.11.1v3c0,.07,0,.1.11.1h5.41a.16.16,0,0,1,.17.17v1.5a.16.16,0,0,1-.17.17h-7.39a.17.17,0,0,1-.18-.17Z" transform="translate(-163.47 -48.42)"/><path class="cls-1" d="M204.53,68.48a.17.17,0,0,1,.18-.17h1.59a.31.31,0,0,1,.3.17l4.81,8.14h.07V68.48a.16.16,0,0,1,.17-.17h1.51a.16.16,0,0,1,.17.17V79.94a.16.16,0,0,1-.17.17h-1.58a.3.3,0,0,1-.29-.17l-4.83-8.13h-.07v8.13a.16.16,0,0,1-.17.17h-1.51a.17.17,0,0,1-.18-.17Z" transform="translate(-163.47 -48.42)"/><path class="cls-1" d="M216,74.21a9.22,9.22,0,0,1,.31-3.19,4,4,0,0,1,4.1-2.9,4.15,4.15,0,0,1,4,2.53.15.15,0,0,1-.09.21l-1.48.71a.15.15,0,0,1-.22-.09,2.32,2.32,0,0,0-2.2-1.52,2.09,2.09,0,0,0-2.12,1.56,8.4,8.4,0,0,0-.21,2.69,8.44,8.44,0,0,0,.21,2.69,2.09,2.09,0,0,0,2.12,1.56,2.32,2.32,0,0,0,2.2-1.53.15.15,0,0,1,.22-.08l1.48.71a.15.15,0,0,1,.09.21,4.15,4.15,0,0,1-4,2.53,4,4,0,0,1-4.1-2.9A9.22,9.22,0,0,1,216,74.21Z" transform="translate(-163.47 -48.42)"/><path class="cls-1" d="M229.27,80.11a.16.16,0,0,1-.17-.17V75.29l-3.42-6.81c0-.08,0-.17.14-.17h1.75a.25.25,0,0,1,.24.17l2.31,4.58h0l2.33-4.58a.23.23,0,0,1,.24-.17h1.68c.14,0,.18.09.14.17l-3.41,6.81v4.65a.17.17,0,0,1-.18.17Z" transform="translate(-163.47 -48.42)"/></svg>